<svg width="42" height="48" viewBox="0 0 42 48" fill="none" xmlns="http://www.w3.org/2000/svg">
<path fill-rule="evenodd" clip-rule="evenodd" d="M4.02014 15.3401C4.02014 15.1667 3.99798 15.2265 3.88373 15.0304C3.76948 14.8343 3.63318 14.6596 3.33464 14.1637C3.03611 13.6678 2.4503 12.691 2.09252 12.055C1.73475 11.419 1.44401 10.9375 1.188 10.3477C0.931983 9.75794 0.737983 9.26633 0.55643 8.51644C0.374878 7.76654 0.190924 6.71386 0.098682 5.84833C0.00644071 4.9828 -0.00752676 4.12051 0.00298189 3.32325C0.0134905 2.52599 0.0642267 1.61485 0.161733 1.06478C0.25924 0.514698 0.416978 0.130663 0.588022 0.0227801C0.759066 -0.0851029 1.02812 0.214203 1.188 0.417477C1.34787 0.620752 1.29231 0.476299 1.54727 1.24243C1.80223 2.00856 2.25982 3.72178 2.71775 5.01426C3.17567 6.30674 3.77728 7.91617 4.29482 8.99732C4.81236 10.0785 5.39801 10.8892 5.82298 11.5011C6.24795 12.1131 6.56243 12.514 6.84462 12.669C7.12681 12.8239 7.25254 12.5498 7.51611 12.4306C7.77968 12.3114 7.96022 12.0947 8.42605 11.9538C8.89189 11.813 9.48417 11.6686 10.3111 11.5856C11.138 11.5025 12.5463 11.4158 13.3877 11.4555C14.229 11.4953 14.5828 11.5388 15.3592 11.824C16.1355 12.1093 17.4898 12.9686 18.0459 13.1672C18.602 13.3657 18.5874 13.1635 18.6957 13.0154C18.804 12.8674 18.6668 12.7483 18.6957 12.2789C18.7246 11.8095 18.7572 10.9898 18.8691 10.199C18.9811 9.40816 19.1181 8.34641 19.3673 7.53392C19.6165 6.72144 19.8948 6.01378 20.3643 5.3241C20.8337 4.63441 21.5377 3.86522 22.184 3.39582C22.8303 2.92641 23.5706 2.72433 24.2422 2.50768C24.9139 2.29103 25.3799 2.22593 26.214 2.09593C27.0481 1.96593 28.2901 1.83959 29.2469 1.72767C30.2038 1.61576 31.1933 1.50027 31.9552 1.42444C32.7172 1.34862 33.1433 1.21496 33.8186 1.2727C34.4939 1.33044 35.3186 1.48331 36.0069 1.77089C36.6952 2.05848 37.4107 2.5498 37.9484 2.99821C38.486 3.44662 38.8861 3.96548 39.2329 4.46134C39.5798 4.9572 39.7693 5.28241 40.0295 5.97338C40.2896 6.66434 40.6149 7.79421 40.7937 8.60711C40.9726 9.42002 41.0104 9.91325 41.1025 10.8508C41.1946 11.7883 41.2677 13.1962 41.3464 14.2323C41.4251 15.2683 41.5258 16.1361 41.5748 17.0672C41.6238 17.9982 41.7629 19.0711 41.6401 19.8186C41.5173 20.566 41.1272 21.0682 40.8383 21.552C40.5494 22.0359 40.4158 22.3534 39.9067 22.7217C39.3975 23.09 38.9066 23.5018 37.7835 23.7619C36.6605 24.0219 34.0641 24.1878 33.1685 24.2817C32.273 24.3756 32.5329 24.1808 32.4102 24.3252C32.2874 24.4697 32.4537 24.596 32.432 25.1484C32.4103 25.7009 32.4139 26.5243 32.2803 27.6401C32.1466 28.7559 31.8504 30.6986 31.6302 31.8432C31.4099 32.9879 31.0851 33.5221 30.9587 34.5079C30.8323 35.4937 30.7781 36.7215 30.872 37.7579C30.9659 38.7943 31.226 39.8849 31.5221 40.7263C31.8181 41.5677 32.3308 42.3368 32.6485 42.8062C32.9663 43.2756 33.266 43.1852 33.4285 43.5427C33.5911 43.9002 33.7294 44.5116 33.6238 44.951C33.5181 45.3903 33.1388 45.9552 32.7947 46.1788C32.4506 46.4025 32.2122 46.3171 31.5592 46.2928C30.9062 46.2684 29.4862 46.2223 28.8765 46.0326C28.2669 45.843 28.1423 45.721 27.9012 45.1547C27.66 44.5883 27.5896 43.5369 27.4297 42.6346C27.2698 41.7323 27.1301 40.8281 26.9419 39.7409C26.7538 38.6537 26.3859 37.1208 26.3007 36.1114C26.2155 35.1021 26.3728 34.3636 26.4305 33.6848C26.4883 33.006 26.6038 32.4572 26.6472 32.0383C26.6905 31.6195 26.8167 31.3161 26.6904 31.1716C26.564 31.0272 26.1525 31.1391 25.889 31.1716C25.6254 31.2041 25.4348 31.2908 25.109 31.3664C24.7831 31.4421 24.2693 31.5724 23.9341 31.6253C23.599 31.6781 23.3638 31.6513 23.0981 31.6837C22.8323 31.7161 22.5679 31.7823 22.3397 31.8197C22.1116 31.8571 21.8561 31.7923 21.729 31.9081C21.602 32.024 21.6821 32.0742 21.5774 32.5147C21.4727 32.9553 21.2524 33.7353 21.1008 34.5514C20.9491 35.3675 20.7253 36.4255 20.6675 37.4113C20.6097 38.3971 20.6817 39.6356 20.7539 40.4662C20.8261 41.2967 20.9852 41.8311 21.1008 42.3944C21.2163 42.9577 21.2883 43.4343 21.4472 43.8459C21.6061 44.2576 21.9124 44.657 22.0541 44.8643C22.1958 45.0715 22.2253 45.0208 22.2976 45.0894C22.3698 45.158 22.4124 45.1438 22.4874 45.276C22.5623 45.4082 22.7293 45.565 22.7474 45.8827C22.7654 46.2005 22.816 46.8432 22.5958 47.1826C22.3755 47.5221 22.1191 47.8039 21.4258 47.9194C20.7325 48.035 19.1835 48.0312 18.436 47.8759C17.6885 47.7207 17.2442 47.3958 16.9409 46.9878C16.6375 46.5798 16.6989 46.2439 16.6158 45.4278C16.5327 44.6117 16.4893 42.7808 16.4424 42.0911C16.3955 41.4014 16.4642 41.4197 16.3343 41.2897C16.2043 41.1597 15.954 41.2977 15.6627 41.3111C15.3713 41.3244 14.9907 41.4854 14.5863 41.3699C14.1819 41.2543 13.5766 41.4039 13.236 40.6178C12.8955 39.8316 12.7305 37.7978 12.5427 36.6531C12.355 35.5084 12.2106 34.8186 12.1095 33.7497C12.0083 32.6809 11.9072 31.2077 11.936 30.24C11.9649 29.2723 12.2176 28.4635 12.2826 27.9434C12.3476 27.4234 12.4705 27.4522 12.3261 27.1199C12.1817 26.7877 11.8411 26.2845 11.4162 25.9499C10.9913 25.6153 10.1607 25.1219 9.77669 25.1124C9.3927 25.1028 9.38662 25.3291 9.11221 25.8924C8.8378 26.4557 8.52499 27.6979 8.13023 28.4923C7.73547 29.2867 7.11919 29.9945 6.74363 30.6589C6.36808 31.3233 6.06952 32.0598 5.87691 32.4786C5.6843 32.8975 5.70351 32.5412 5.58796 33.1719C5.47241 33.8027 5.2221 35.4206 5.18361 36.2632C5.14513 37.1057 5.17892 37.5919 5.35704 38.2274C5.53515 38.8629 6.05183 39.6646 6.25231 40.0761C6.45279 40.4876 6.46843 40.451 6.5599 40.6966C6.65137 40.9421 6.76093 41.2532 6.80113 41.5494C6.84134 41.8456 6.94554 42.2283 6.80113 42.4739C6.65672 42.7194 6.57501 42.8783 5.93468 43.0227C5.29434 43.1672 3.75357 43.4128 2.95911 43.3406C2.16465 43.2684 1.51456 43.3358 1.16791 42.5895C0.821258 41.8433 0.975493 40.2832 0.87922 38.8629C0.782947 37.4426 0.638428 35.2327 0.590269 34.0676C0.542111 32.9025 0.344718 33.0565 0.590269 31.872C0.83582 30.6876 1.69285 28.9158 2.06358 26.9611C2.4343 25.0063 2.51128 21.9587 2.81464 20.1436C3.118 18.3285 3.68281 16.8711 3.88373 16.0705C4.08465 15.27 4.02014 15.5135 4.02014 15.3401Z" fill="#7300FF"/>
</svg>
