<svg width="111" height="128" viewBox="0 0 111 128" fill="none" xmlns="http://www.w3.org/2000/svg">
<path fill-rule="evenodd" clip-rule="evenodd" d="M10.7038 40.9069C10.7038 40.4445 10.6448 40.604 10.3406 40.0811C10.0364 39.5581 9.6735 39.0923 8.87863 37.7699C8.08378 36.4475 6.52403 33.8427 5.57143 32.1467C4.61885 30.4507 3.84474 29.1667 3.1631 27.5939C2.48145 26.0212 1.96491 24.7102 1.48152 22.7105C0.998129 20.7108 0.508344 17.9036 0.262745 15.5955C0.0171487 13.2875 -0.0200403 10.988 0.00793942 8.862C0.0359191 6.73597 0.171006 4.30627 0.430621 2.83941C0.690238 1.37253 1.11022 0.348435 1.56563 0.060747C2.02105 -0.226941 2.73742 0.571208 3.1631 1.11327C3.58876 1.65534 3.44083 1.27013 4.11968 3.31315C4.79852 5.35616 6.01687 9.92474 7.23613 13.3714C8.45536 16.818 10.0572 21.1098 11.4352 23.9928C12.8131 26.876 14.3724 29.0379 15.5039 30.6696C16.6354 32.3016 17.4728 33.3707 18.2241 33.784C18.9755 34.1971 19.3102 33.4661 20.012 33.1483C20.7137 32.8304 21.1944 32.2525 22.4347 31.8768C23.6751 31.5013 25.252 31.1163 27.4538 30.8949C29.6554 30.6733 33.4051 30.4421 35.6454 30.548C37.8853 30.6541 38.8274 30.7701 40.8946 31.5307C42.9615 32.2915 46.5674 34.5829 48.048 35.1125C49.5287 35.6419 49.4898 35.1027 49.7781 34.7077C50.0665 34.3131 49.7012 33.9955 49.7781 32.7437C49.8551 31.492 49.9419 29.3061 50.2398 27.1973C50.538 25.0884 50.9028 22.2571 51.5663 20.0904C52.2298 17.9238 52.9708 16.0367 54.2209 14.1976C55.4707 12.3584 57.3451 10.3073 59.0659 9.05552C60.7867 7.80376 62.7578 7.26488 64.5459 6.68714C66.3344 6.10941 67.5751 5.93581 69.796 5.58915C72.0168 5.24248 75.3237 4.90557 77.8712 4.60712C80.419 4.30869 83.0536 4.00072 85.0822 3.79851C87.111 3.59632 88.2455 3.23989 90.0435 3.39387C91.8416 3.54784 94.0374 3.95549 95.87 4.72237C97.7026 5.48928 99.6077 6.79946 101.039 7.99522C102.471 9.19098 103.536 10.5746 104.459 11.8969C105.383 13.2192 105.888 14.0864 106.58 15.929C107.273 17.7716 108.139 20.7846 108.615 22.9523C109.091 25.12 109.192 26.4353 109.437 28.9355C109.682 31.4355 109.877 35.1899 110.087 37.9528C110.296 40.7155 110.564 43.0296 110.695 45.5125C110.825 47.9952 111.196 50.8563 110.869 52.8496C110.542 54.8426 109.503 56.1818 108.734 57.472C107.965 58.7624 107.609 59.6091 106.253 60.5912C104.898 61.5733 103.591 62.6714 100.6 63.365C97.6102 64.0584 90.6972 64.5008 88.3126 64.7512C85.9283 65.0016 86.6203 64.4821 86.2936 64.8672C85.9666 65.2525 86.4094 65.5893 86.3516 67.0624C86.2939 68.5357 86.3035 70.7314 85.9477 73.7069C85.5918 76.6824 84.8031 81.8629 84.2168 84.9152C83.6303 87.9677 82.7655 89.3922 82.4289 92.021C82.0924 94.6498 81.9481 97.924 82.1981 100.688C82.4481 103.451 83.1406 106.36 83.929 108.603C84.7171 110.847 86.0822 112.898 86.9281 114.15C87.7742 115.402 88.5722 115.16 89.0049 116.114C89.4378 117.067 89.806 118.698 89.5249 119.869C89.2434 121.041 88.2335 122.547 87.3174 123.143C86.4012 123.74 85.7664 123.512 84.0278 123.447C82.2891 123.382 78.5083 123.259 76.885 122.754C75.2619 122.248 74.9301 121.923 74.2882 120.412C73.646 118.902 73.4585 116.098 73.0328 113.692C72.6071 111.286 72.2351 108.875 71.734 105.976C71.2332 103.076 70.2536 98.9888 70.0268 96.297C69.7999 93.6056 70.2188 91.6362 70.3724 89.8261C70.5263 88.016 70.8338 86.5525 70.9494 85.4354C71.0647 84.3186 71.4007 83.5096 71.0644 83.1242C70.7278 82.7392 69.6322 83.0376 68.9306 83.1242C68.2288 83.2109 67.7213 83.4421 66.8538 83.6437C65.9861 83.8456 64.6181 84.193 63.7256 84.3341C62.8334 84.4749 62.2072 84.4034 61.4997 84.4898C60.792 84.5762 60.088 84.7528 59.4805 84.8525C58.8731 84.9522 58.1928 84.7794 57.8544 85.0882C57.5163 85.3973 57.7296 85.5312 57.4508 86.7058C57.172 87.8808 56.5855 89.9608 56.1818 92.137C55.7779 94.3133 55.182 97.1346 55.0281 99.7634C54.8742 102.392 55.066 105.695 55.2582 107.91C55.4504 110.125 55.874 111.55 56.1818 113.052C56.4893 114.554 56.6811 115.825 57.1041 116.922C57.5272 118.02 58.3427 119.085 58.72 119.638C59.0973 120.191 59.1759 120.055 59.3684 120.238C59.5606 120.421 59.674 120.383 59.8737 120.736C60.0731 121.088 60.5178 121.507 60.566 122.354C60.6139 123.201 60.7486 124.915 60.1623 125.82C59.5758 126.726 58.8931 127.477 57.0472 127.785C55.2012 128.093 51.0769 128.083 49.0867 127.669C47.0964 127.255 45.9135 126.389 45.1059 125.301C44.2981 124.213 44.4616 123.317 44.2403 121.141C44.0191 118.964 43.9035 114.082 43.7786 112.243C43.6538 110.404 43.8367 110.452 43.4908 110.106C43.1447 109.759 42.4782 110.127 41.7026 110.163C40.9268 110.198 39.9134 110.628 38.8367 110.32C37.7599 110.011 36.1483 110.41 35.2414 108.314C34.3348 106.218 33.8955 100.794 33.3955 97.7416C32.8957 94.689 32.5113 92.8496 32.2421 89.9992C31.9726 87.149 31.7035 83.2205 31.7801 80.64C31.8571 78.0594 32.5299 75.9026 32.703 74.5157C32.876 73.129 33.2033 73.2058 32.8188 72.3197C32.4343 71.4338 31.5275 70.092 30.3961 69.1997C29.2648 68.3074 27.0533 66.9917 26.0309 66.9664C25.0085 66.9408 24.9923 67.5442 24.2617 69.0464C23.531 70.5485 22.6982 73.861 21.6471 75.9794C20.596 78.0978 18.9552 79.9853 17.9552 81.757C16.9553 83.5288 16.1604 85.4928 15.6475 86.6096C15.1347 87.7266 15.1859 86.7765 14.8782 88.4584C14.5705 90.1405 13.9041 94.4549 13.8016 96.7018C13.6991 98.9485 13.7891 100.245 14.2634 101.94C14.7376 103.634 16.1133 105.772 16.6471 106.87C17.1808 107.967 17.2225 107.869 17.466 108.524C17.7096 109.179 18.0013 110.008 18.1083 110.798C18.2154 111.588 18.4928 112.609 18.1083 113.264C17.7238 113.918 17.5063 114.342 15.8014 114.727C14.0964 115.112 9.99405 115.767 7.87876 115.575C5.76348 115.382 4.03258 115.562 3.10961 113.572C2.18664 111.582 2.59729 107.422 2.34096 103.634C2.08463 99.8469 1.69984 93.9538 1.57162 90.8469C1.44339 87.74 0.917827 88.1506 1.57162 84.992C2.22541 81.8336 4.50729 77.1088 5.49437 71.8962C6.48143 66.6834 6.6864 58.5565 7.4941 53.7163C8.30181 48.876 9.80565 44.9896 10.3406 42.8547C10.8756 40.72 10.7038 41.3693 10.7038 40.9069Z" fill="#0550FF"/>
</svg>
